<?xml version="1.0" encoding="UTF-8" standalone="no"?>
<svg
   xmlns:dc="http://purl.org/dc/elements/1.1/"
   xmlns:cc="http://creativecommons.org/ns#"
   xmlns:rdf="http://www.w3.org/1999/02/22-rdf-syntax-ns#"
   xmlns:svg="http://www.w3.org/2000/svg"
   xmlns="http://www.w3.org/2000/svg"
   xmlns:sodipodi="http://sodipodi.sourceforge.net/DTD/sodipodi-0.dtd"
   xmlns:inkscape="http://www.inkscape.org/namespaces/inkscape"
   sodipodi:docname="logo_with_name.svg"
   inkscape:version="1.0 (4035a4fb49, 2020-05-01)"
   id="svg8"
   version="1.1"
   viewBox="0 0 21.166666 21.166666"
   height="80"
   width="80">
  <defs
     id="defs2" />
  <sodipodi:namedview
     inkscape:window-maximized="1"
     inkscape:window-y="-9"
     inkscape:window-x="-9"
     inkscape:window-height="1001"
     inkscape:window-width="1920"
     units="px"
     showgrid="false"
     inkscape:document-rotation="0"
     inkscape:current-layer="text852"
     inkscape:document-units="px"
     inkscape:cy="21.292403"
     inkscape:cx="27.495984"
     inkscape:zoom="5.6"
     inkscape:pageshadow="2"
     inkscape:pageopacity="0.0"
     borderopacity="1.0"
     bordercolor="#666666"
     pagecolor="#ffffff"
     id="base" />
  <metadata
     id="metadata5">
    <rdf:RDF>
      <cc:Work
         rdf:about="">
        <dc:format>image/svg+xml</dc:format>
        <dc:type
           rdf:resource="http://purl.org/dc/dcmitype/StillImage" />
        <dc:title></dc:title>
      </cc:Work>
    </rdf:RDF>
  </metadata>
  <g
     id="layer1"
     inkscape:groupmode="layer"
     inkscape:label="Layer 1">
    <text
       id="text848"
       y="64.612404"
       x="63.626854"
       style="font-size:10.5833px;line-height:1.25;font-family:'UD Digi Kyokasho NP-R';-inkscape-font-specification:'UD Digi Kyokasho NP-R';stroke-width:0.264583"
       xml:space="preserve"><tspan
         style="stroke-width:0.264583"
         y="64.612404"
         x="63.626854"
         id="tspan846"
         sodipodi:role="line"></tspan></text>
    <g
       style="font-size:10.5833px;line-height:1.25;font-family:'UD Digi Kyokasho NP-R';-inkscape-font-specification:'UD Digi Kyokasho NP-R';fill:#00aaee;fill-opacity:1;stroke:none;stroke-width:0.264583;stroke-miterlimit:4;stroke-dasharray:none"
       id="text852"
       aria-label="Y">
      <g
         transform="translate(-52.190935,-55.420757)"
         id="g903">
        <g
           aria-label="S"
           id="text835"
           style="font-style:normal;font-weight:normal;font-size:10.5833px;line-height:1.25;font-family:sans-serif;white-space:pre;inline-size:7.47904;fill:#ee0066;fill-opacity:1;stroke:none;stroke-width:0.264583;stroke-miterlimit:4;stroke-dasharray:none">
          <path
             d="m 60.631784,57.050361 c 0.854381,0 1.702871,-0.156824 2.2782,0.297927 0.241156,0.18948 0.361734,0.483832 0.361734,0.649196 0,0.113687 -0.173255,0.480865 -0.25249,0.566992 -0.09302,0.103353 -0.444011,0.89002 -0.58526,0.89002 -0.120578,0 -0.342583,-0.42899 -0.432155,-0.518559 -0.482312,-0.485757 -0.701682,-0.71193 -1.359693,-0.71193 -0.389295,0 -0.740172,0.07699 -1.019224,0.197571 -0.471977,0.199815 -0.758079,0.369869 -0.758079,0.81084 0,0.313503 0.156748,0.625442 0.470255,0.835592 0.244601,0.165364 1.053429,-0.091 1.825128,0.132925 0.80615,0.230821 1.505299,0.41962 1.863588,0.633215 0.62356,0.368624 0.584549,1.103064 0.584549,1.802416 0,0.730358 -0.303167,1.291907 -0.909502,1.684646 -0.499537,0.323838 -1.145491,0.485757 -1.93786,0.485757 -0.961179,0 -1.767328,-0.266994 -2.418449,-0.800982 -0.310058,-0.254936 -0.749061,-0.709282 -0.749061,-0.895317 0,-0.09302 0.515436,-0.481545 0.577446,-0.564227 0.08268,-0.110243 0.445212,-0.449338 0.58646,-0.449338 0.137803,0 0.341744,0.552647 0.545004,0.755907 0.217041,0.21704 0.399312,0.364499 0.747265,0.509193 0.347953,0.144693 0.619796,0.300561 1.015981,0.300561 0.509873,0 1.000435,0.0556 1.338054,-0.13388 0.437525,-0.244601 0.305497,-0.427234 0.305497,-0.881985 0,-0.40652 -0.08753,-0.546089 -0.463045,-0.752794 -0.299723,-0.165365 -1.187266,-0.0097 -2.027867,-0.268123 -0.699352,-0.213595 -1.399183,-0.497973 -1.798812,-0.75291 -0.496093,-0.316947 -0.376643,-1.259569 -0.376643,-1.859014 0,-0.702797 0.339341,-1.238508 1.018023,-1.607132 0.437525,-0.237711 0.961178,-0.356567 1.570958,-0.356567 z"
             style="font-style:normal;font-variant:normal;font-weight:normal;font-stretch:normal;font-family:'UD Digi Kyokasho NK-R';-inkscape-font-specification:'UD Digi Kyokasho NK-R';fill:#ee0066;fill-opacity:1;stroke-width:0.264583;stroke-miterlimit:4;stroke-dasharray:none"
             id="path843"
             sodipodi:nodetypes="scscscscscccscscsssssscscccscss" />
        </g>
        <path
           d="m 64.232112,63.689156 -1.091481,-3.339733 c -0.06546,-0.08613 -0.181712,-0.427988 -0.181712,-0.52445 0,-0.161919 0.135718,-0.386168 0.273523,-0.472295 0.08957,-0.05857 0.449859,-0.0043 0.546321,-0.0043 0.151584,0 0.141972,0.169126 0.238434,0.306931 l 0.659326,3.274234 2.413282,-3.37446 c 0.09646,-0.137803 0.220485,-0.206705 0.372069,-0.206705 0.08957,0 0.177422,0.02584 0.263549,0.07751 0.148139,0.08613 0.222208,0.213596 0.222208,0.382405 0,0.09646 -0.03273,0.187757 -0.09819,0.273884 l -2.728497,3.607007 0.634765,2.74954 c 0.02635,0.114131 -0.176695,0.297116 -0.262826,0.372908 -0.08268,0.07579 -0.688887,0.09698 -0.816355,0.09698 -0.161919,0 -0.85389,0.06009 -0.940017,-0.0536 -0.04823,-0.06201 -0.332546,-0.36049 -0.306211,-0.449699 z"
           style="fill:#00aaee;fill-opacity:1;stroke:none;stroke-width:0.264583;stroke-miterlimit:4;stroke-dasharray:none"
           id="path863"
           sodipodi:nodetypes="ccscscccscsccscscsc" />
      </g>
      <g
         transform="translate(-55.042781,-55.420757)"
         id="g896">
        <text
           xml:space="preserve"
           style="font-size:5.29167px;line-height:1.25;font-family:'UD Digi Kyokasho NP-R';-inkscape-font-specification:'UD Digi Kyokasho NP-R';stroke-width:0.0700042"
           x="55.786694"
           y="71.286842"
           id="text868"><tspan
             sodipodi:role="line"
             id="tspan866"
             x="55.786694"
             y="71.286842"
             style="font-size:5.29167px;stroke-width:0.0700042"><tspan
   style="font-size:5.29167px;fill:#ee0066;fill-opacity:1"
   id="tspan870">Shiba</tspan></tspan><tspan
             sodipodi:role="line"
             x="55.786694"
             y="77.901428"
             style="font-size:5.29167px;stroke-width:0.0700042"
             id="tspan884" /></text>
        <text
           xml:space="preserve"
           style="font-size:5.29167px;line-height:1.25;font-family:'UD Digi Kyokasho NP-R';-inkscape-font-specification:'UD Digi Kyokasho NP-R';stroke-width:0.0700042"
           x="61.973122"
           y="74.267525"
           id="text888"><tspan
             sodipodi:role="line"
             id="tspan886"
             x="61.973122"
             y="74.267525"
             style="font-size:5.29167px;stroke-width:0.0700042">yama</tspan></text>
      </g>
    </g>
  </g>
</svg>
